<svg xmlns="http://www.w3.org/2000/svg" viewBox="0 0 341.33 305.37"><defs><style>.cls-1{font-size:14px;font-family:Didot-HTF-L11-Light, Didot;}.cls-1,.cls-28{fill:#2a350b;}.cls-2{letter-spacing:0.33em;}.cls-3{letter-spacing:0.33em;}.cls-4{letter-spacing:-0.01em;}.cls-5{letter-spacing:-0.06em;}.cls-6{letter-spacing:-0.01em;}.cls-7{letter-spacing:-0.02em;}.cls-8{letter-spacing:-0.02em;}.cls-9{letter-spacing:-0.01em;}.cls-10{letter-spacing:0em;}.cls-11{letter-spacing:-0.02em;}.cls-12{letter-spacing:0em;}.cls-13{letter-spacing:-0.04em;}.cls-14{letter-spacing:0em;}.cls-15{letter-spacing:0em;}.cls-16{letter-spacing:0.01em;}.cls-17{letter-spacing:0.01em;}.cls-18{letter-spacing:-0.03em;}.cls-19{letter-spacing:-0.04em;}.cls-20{letter-spacing:-0.07em;}.cls-21{letter-spacing:-0.05em;}.cls-22{letter-spacing:-0.07em;}.cls-23{letter-spacing:0.12em;}.cls-24{letter-spacing:-0.01em;}.cls-25{letter-spacing:0.12em;}.cls-26{letter-spacing:-0.02em;}.cls-27{letter-spacing:0em;}.cls-29{fill:#eab200;}</style></defs><title>txt-2</title><g id="Layer_2" data-name="Layer 2"><g id="tipografias"><text class="cls-1" transform="translate(8.72 20.7)">O<tspan class="cls-2" x="10.01" y="0"> </tspan><tspan x="17.09" y="0">pai</tspan><tspan class="cls-2" x="34.49" y="0"> </tspan><tspan x="41.57" y="0">A</tspan><tspan class="cls-3" x="50.57" y="0"> </tspan><tspan x="57.65" y="0">PERSEGUIU</tspan><tspan class="cls-2" x="133.32" y="0"> </tspan><tspan x="140.39" y="0">e</tspan><tspan class="cls-2" x="146.89" y="0"> </tspan><tspan x="153.97" y="0">cons</tspan><tspan class="cls-4" x="180.15" y="0">e</tspan><tspan x="186.54" y="0">guiu</tspan><tspan class="cls-2" x="212.22" y="0"> </tspan><tspan x="219.3" y="0">PRENDÊ-LA.</tspan><tspan class="cls-3" x="297.8" y="0"> </tspan><tspan class="cls-5" x="304.87" y="0">P</tspan><tspan x="312.64" y="0">a</tspan><tspan class="cls-6" x="318.8" y="0">r</tspan><tspan x="323.94" y="0">a </tspan><tspan x="0" y="16.8">CASTIGÁ-LA,</tspan><tspan class="cls-7" x="81.19" y="16.8"> </tspan><tspan x="83.45" y="16.8">IARA</tspan><tspan class="cls-7" x="115.84" y="16.8"> </tspan><tspan class="cls-8" x="118.11" y="16.8">f</tspan><tspan x="122.28" y="16.8">oi</tspan><tspan class="cls-7" x="133.31" y="16.8"> </tspan><tspan x="135.57" y="16.8">j</tspan><tspan class="cls-9" x="139.37" y="16.8">o</tspan><tspan class="cls-10" x="146.27" y="16.8">g</tspan><tspan x="153.16" y="16.8">ada</tspan><tspan class="cls-11" x="172.7" y="16.8"> </tspan><tspan x="174.96" y="16.8">no</tspan><tspan class="cls-7" x="189.63" y="16.8"> </tspan><tspan x="191.9" y="16.8">encont</tspan><tspan class="cls-12" x="231.12" y="16.8">r</tspan><tspan x="236.35" y="16.8">o</tspan><tspan class="cls-7" x="243.44" y="16.8"> </tspan><tspan x="245.71" y="16.8">dos</tspan><tspan class="cls-7" x="265.32" y="16.8"> </tspan><tspan x="267.58" y="16.8">Rios</tspan><tspan class="cls-7" x="293.05" y="16.8"> </tspan><tspan class="cls-13" x="295.31" y="16.8">N</tspan><tspan class="cls-4" x="304.51" y="16.8">e</tspan><tspan x="310.91" y="16.8">g</tspan><tspan class="cls-14" x="317.78" y="16.8">r</tspan><tspan class="cls-15" x="323" y="16.8">o </tspan><tspan x="0" y="33.6">e</tspan><tspan class="cls-16" x="6.5" y="33.6"> </tspan><tspan x="9.07" y="33.6">Solimões.</tspan><tspan class="cls-17" x="64.22" y="33.6"> </tspan><tspan class="cls-18" x="66.8" y="33.6">O</tspan><tspan x="76.46" y="33.6">s</tspan><tspan class="cls-16" x="81.75" y="33.6"> </tspan><tspan x="84.32" y="33.6">peixes</tspan><tspan class="cls-17" x="120.56" y="33.6"> </tspan><tspan x="123.13" y="33.6">que</tspan><tspan class="cls-16" x="144.06" y="33.6"> </tspan><tspan x="146.64" y="33.6">ALI</tspan><tspan class="cls-17" x="168.97" y="33.6"> </tspan><tspan x="171.55" y="33.6">ES</tspan><tspan class="cls-19" x="187.48" y="33.6">T</tspan><tspan class="cls-20" x="195.42" y="33.6">A</tspan><tspan class="cls-21" x="203.48" y="33.6">V</tspan><tspan x="212.13" y="33.6">AM</tspan><tspan class="cls-16" x="232.99" y="33.6"> </tspan><tspan x="235.57" y="33.6">A</tspan><tspan class="cls-16" x="244.57" y="33.6"> </tspan><tspan x="247.15" y="33.6">SA</tspan><tspan class="cls-22" x="263.59" y="33.6">L</tspan><tspan class="cls-21" x="270.68" y="33.6">V</tspan><tspan x="279.34" y="33.6">ARAM</tspan><tspan class="cls-17" x="318.34" y="33.6"> </tspan><tspan class="cls-15" x="320.92" y="33.6">e, </tspan><tspan x="0" y="50.4">como</tspan><tspan class="cls-23" x="31.89" y="50.4"> </tspan><tspan x="36.08" y="50.4">e</tspan><tspan class="cls-24" x="42.57" y="50.4">r</tspan><tspan x="47.71" y="50.4">a</tspan><tspan class="cls-23" x="53.87" y="50.4"> </tspan><tspan x="58.06" y="50.4">noite</tspan><tspan class="cls-25" x="87.43" y="50.4"> </tspan><tspan x="91.62" y="50.4">de</tspan><tspan class="cls-23" x="105.34" y="50.4"> </tspan><tspan x="109.53" y="50.4">lua</tspan><tspan class="cls-23" x="126.75" y="50.4"> </tspan><tspan x="130.93" y="50.4">cheia,</tspan><tspan class="cls-23" x="163.92" y="50.4"> </tspan><tspan x="168.1" y="50.4">ELA</tspan><tspan class="cls-23" x="193.68" y="50.4"> </tspan><tspan class="cls-26" x="197.87" y="50.4">f</tspan><tspan x="202.04" y="50.4">oi</tspan><tspan class="cls-25" x="213.07" y="50.4"> </tspan><tspan x="217.26" y="50.4">t</tspan><tspan class="cls-24" x="221.53" y="50.4">r</tspan><tspan x="226.67" y="50.4">ans</tspan><tspan class="cls-26" x="245.69" y="50.4">f</tspan><tspan x="249.87" y="50.4">ormada</tspan><tspan class="cls-23" x="293.27" y="50.4"> </tspan><tspan class="cls-27" x="297.45" y="50.4">numa </tspan><tspan x="0" y="67.2">linda se</tspan><tspan class="cls-12" x="42.81" y="67.2">r</tspan><tspan x="48.03" y="67.2">eia.</tspan></text></g><g id="flechas"><path id="arrow3" class="cls-28" d="M229.61,7.36l0-.05a.47.47,0,0,0-.1-.52l-.38-.38c-.69-1.12-1.61-2.08-2.34-3.19a.48.48,0,0,0-.47-.22.47.47,0,0,0-.49.12,11.14,11.14,0,0,0-1.59,2.24,50.49,50.49,0,0,0-18.1-4.13C197.55.74,189,.2,180.42,0c-17.24-.31-34.66,1-51.07,6.68-.6.21-.34,1.18.27,1C145.38,2.26,162,.87,178.58,1c8.27.07,16.54.54,24.8,1,7.21.44,13.9,1.31,20.39,4.19a15.14,15.14,0,0,0-.72,1.81.5.5,0,0,0,.62.61c1.85-.34,3.73-.38,5.59-.7A.5.5,0,0,0,229.61,7.36Z"/><path id="arrow3-2" data-name="arrow3" class="cls-28" d="M58.15,7.14C43.88,4.83,29.57.51,15.18,4.46,10.46,5.75,5.3,8.08,2.36,12.16A11.15,11.15,0,0,0,0,19.8a16,16,0,0,0,2.71,6.86c-.46,1.39-.73,2.91-1.24,4.11-.15.37.29.7.62.62a18.87,18.87,0,0,1,5-.24.5.5,0,0,0,.43-.75,39,39,0,0,1-1.48-4.75l0-.06C6,25,5.9,24.36,5.82,23.74a.51.51,0,0,0-.75-.43,4.68,4.68,0,0,0-1.84,2.14A15.72,15.72,0,0,1,1,19c-.25-3,1.64-5.88,3.64-7.91,3.61-3.64,9-5.37,13.85-6.41C31.64,1.88,44.92,6,57.89,8.11,58.52,8.21,58.79,7.24,58.15,7.14Z"/><path id="arrow3-3" data-name="arrow3" class="cls-28" d="M331.88,44.61c-.06-.17-.13-.34-.19-.5a8.43,8.43,0,0,0-.33-1.87,3.76,3.76,0,0,0-.83-2.58,1.27,1.27,0,0,0-.47-.31.64.64,0,0,0-.88,0,1.2,1.2,0,0,0-.24.41,1.72,1.72,0,0,0-.25.68c-.33.66-.69,1.32-1.07,2-6.47-4.32-15.94-4.17-22.37.06-.53.35,0,1.21.51.86,6.12-4,15.18-4.22,21.34-.07-.39.63-.79,1.26-1.19,1.89a.5.5,0,0,0,.44.75,43.13,43.13,0,0,0,5.18-.65A.49.49,0,0,0,331.88,44.61Z"/><path id="arrow3-4" data-name="arrow3" class="cls-28" d="M293.69,78.85c-2.21,0-4.46.53-6.7.68-.81,0-1.61-.11-2.41-.21a2.51,2.51,0,0,0-1.5-.11l-.23.1s-.05,0-.07,0a2.3,2.3,0,0,0-.35.2.47.47,0,0,0-.37.46h0a.82.82,0,0,0,0,.65.44.44,0,0,0,.23.4c.1.06.18.13.27.19l0,0h0a10.57,10.57,0,0,1,1.74,1.38c-14.49,1.7-29.06,3.4-43.37,6.2a416.65,416.65,0,0,1-42.18,6.07c-28.44,2.6-57.38,1.95-85.38-4A191,191,0,0,1,69.22,75.87c-.58-.28-1.08.58-.5.87,50.43,24.62,109.43,24.11,163.6,14.73,17.57-3,35.1-5.73,52.8-7.88a5.94,5.94,0,0,1,.81,1.88.51.51,0,0,0,.74.3,18,18,0,0,0,7.45-6.17A.5.5,0,0,0,293.69,78.85Z"/><g id="assistir-video"><rect class="cls-29" x="88.81" y="114.87" width="104.88" height="27"/><path d="M107.53,132.37s0,0,0-.12,0-.12,0-.12h1c.06,0,.07,0,0,0l-.83-2.48h-2.69l-.68,2c-.06.22-.1.36-.11.42s0,.09,0,.09h.94s0,0,0,.12,0,.12,0,.12H103s0,0,0-.12,0-.12,0-.12h.89a.12.12,0,0,0,.11-.08,2.51,2.51,0,0,0,.15-.43l2.67-7.93s0,0,.11,0,.1,0,.1,0l2.94,8.4a.13.13,0,0,0,.1,0h1s0,0,0,.12,0,.12,0,.12Zm-1.12-6.84-1.27,3.84h2.53Z"/><path d="M114.61,132a1.63,1.63,0,0,1-1.29.49,1.78,1.78,0,0,1-.44,0,1.33,1.33,0,0,1-.32-.12l-.23-.11a.64.64,0,0,0-.23,0,.46.46,0,0,0-.29.09.32.32,0,0,0-.13.14s0,0-.11,0-.11,0-.11,0l.06-1.87s0,0,.11,0,.11,0,.11,0a1.64,1.64,0,0,0,.11.66,1.66,1.66,0,0,0,.33.56,2.08,2.08,0,0,0,.51.37,1.52,1.52,0,0,0,.63.14,1.31,1.31,0,0,0,.82-.25.94.94,0,0,0,.32-.79.75.75,0,0,0-.09-.39.81.81,0,0,0-.28-.27,2,2,0,0,0-.44-.2l-.58-.19a2.79,2.79,0,0,1-1-.52,1.12,1.12,0,0,1-.39-.91,1.7,1.7,0,0,1,.44-1.15,1.59,1.59,0,0,1,.46-.32,1.4,1.4,0,0,1,.54-.1,1.31,1.31,0,0,1,.33,0l.2.06.18.07a1,1,0,0,0,.28,0,.2.2,0,0,0,.18-.09.57.57,0,0,0,.07-.13s0,0,.11,0,.12,0,.12,0v1.53s0,0-.12,0-.11,0-.11,0a1.21,1.21,0,0,0-.11-.49,1.35,1.35,0,0,0-.3-.4,1.7,1.7,0,0,0-.39-.27,1,1,0,0,0-.44-.1.93.93,0,0,0-.69.24.78.78,0,0,0-.24.58.82.82,0,0,0,.08.38.72.72,0,0,0,.26.26,2.48,2.48,0,0,0,.43.2l.58.19a3.47,3.47,0,0,1,.62.22,2,2,0,0,1,.47.32,1.27,1.27,0,0,1,.31.42,1.32,1.32,0,0,1,.12.57A1.82,1.82,0,0,1,114.61,132Z"/><path d="M119.15,132a1.66,1.66,0,0,1-1.29.49,1.87,1.87,0,0,1-.45,0,1.25,1.25,0,0,1-.31-.12l-.24-.11a.59.59,0,0,0-.23,0,.45.45,0,0,0-.28.09.36.36,0,0,0-.14.14s0,0-.1,0-.11,0-.11,0l.06-1.87s0,0,.1,0,.11,0,.11,0a1.83,1.83,0,0,0,.11.66,1.68,1.68,0,0,0,.34.56,1.76,1.76,0,0,0,.51.37,1.46,1.46,0,0,0,.63.14,1.33,1.33,0,0,0,.82-.25.94.94,0,0,0,.32-.79.67.67,0,0,0-.1-.39.7.7,0,0,0-.27-.27,2,2,0,0,0-.44-.2l-.58-.19a2.71,2.71,0,0,1-1-.52,1.12,1.12,0,0,1-.39-.91,1.69,1.69,0,0,1,.12-.66,1.54,1.54,0,0,1,.32-.49,1.36,1.36,0,0,1,.46-.32,1.4,1.4,0,0,1,.54-.1,1.37,1.37,0,0,1,.33,0l.19.06.19.07a1,1,0,0,0,.28,0,.21.21,0,0,0,.18-.09.57.57,0,0,0,.07-.13s0,0,.11,0,.12,0,.12,0v1.53s0,0-.12,0-.11,0-.11,0a1.07,1.07,0,0,0-.12-.49,1.18,1.18,0,0,0-.29-.4,1.56,1.56,0,0,0-.4-.27.94.94,0,0,0-.43-.1.92.92,0,0,0-.69.24.79.79,0,0,0-.25.58.69.69,0,0,0,.35.64,2.36,2.36,0,0,0,.42.2l.59.19a3.1,3.1,0,0,1,.61.22,1.91,1.91,0,0,1,.48.32,1.43,1.43,0,0,1,.31.42,1.32,1.32,0,0,1,.11.57A1.81,1.81,0,0,1,119.15,132Z"/><path d="M120.4,132.37s0,0,0-.12,0-.12,0-.12h.66c.06,0,.08,0,.08,0v-4.54s0,0-.08,0h-.66s0,0,0-.13,0-.12,0-.12h1.76a0,0,0,0,1,0,0v4.79s0,0,.07,0h.67s0,0,0,.12,0,.12,0,.12Zm1.76-7.48a.63.63,0,0,1-1,0,.73.73,0,0,1-.2-.52.7.7,0,0,1,.2-.5.65.65,0,0,1,1,0,.7.7,0,0,1,.2.5A.73.73,0,0,1,122.16,124.89Z"/><path d="M127.06,132a1.66,1.66,0,0,1-1.29.49,1.87,1.87,0,0,1-.45,0,1.25,1.25,0,0,1-.31-.12l-.24-.11a.59.59,0,0,0-.23,0,.43.43,0,0,0-.28.09.36.36,0,0,0-.14.14s0,0-.11,0-.11,0-.11,0l.06-1.87s0,0,.11,0,.11,0,.11,0a1.64,1.64,0,0,0,.11.66,1.84,1.84,0,0,0,.33.56,2.08,2.08,0,0,0,.51.37,1.53,1.53,0,0,0,.64.14,1.35,1.35,0,0,0,.82-.25.94.94,0,0,0,.31-.79.75.75,0,0,0-.09-.39.81.81,0,0,0-.28-.27,1.81,1.81,0,0,0-.44-.2l-.58-.19a2.87,2.87,0,0,1-1-.52,1.15,1.15,0,0,1-.38-.91,1.69,1.69,0,0,1,.12-.66,1.39,1.39,0,0,1,.32-.49,1.42,1.42,0,0,1,.45-.32,1.45,1.45,0,0,1,.55-.1,1.27,1.27,0,0,1,.32,0l.2.06.19.07a.91.91,0,0,0,.27,0,.2.2,0,0,0,.18-.09.76.76,0,0,0,.08-.13s0,0,.1,0,.12,0,.12,0v1.53s0,0-.12,0-.1,0-.1,0a1.07,1.07,0,0,0-.12-.49,1.33,1.33,0,0,0-.29-.4,1.76,1.76,0,0,0-.4-.27,1,1,0,0,0-.43-.1.94.94,0,0,0-.7.24.78.78,0,0,0-.24.58.71.71,0,0,0,.09.38.69.69,0,0,0,.25.26,2.48,2.48,0,0,0,.43.2l.59.19a3.36,3.36,0,0,1,.61.22,2.11,2.11,0,0,1,.48.32,1.43,1.43,0,0,1,.31.42,1.48,1.48,0,0,1,.11.57A1.81,1.81,0,0,1,127.06,132Z"/><path d="M130.85,132.17a1.1,1.1,0,0,1-.81.31c-.69,0-1-.4-1-1.18v-3.76s0,0-.08,0h-.83s0,0,0-.13,0-.12,0-.12h.83c.06,0,.08,0,.08,0V126a.81.81,0,0,0,.57-.32,1.93,1.93,0,0,0,.27-.51s0,0,.11,0,.11,0,.11,0v2s0,0,.07,0h1s0,0,0,.12,0,.13,0,.13h-1s-.07,0-.07,0v4.21c0,.24.11.35.34.35a.56.56,0,0,0,.43-.21,1.46,1.46,0,0,0,.29-.57l.07,0c.05,0,.07.05.07.07A1.66,1.66,0,0,1,130.85,132.17Z"/><path d="M132,132.37s0,0,0-.12,0-.12,0-.12h.66c.05,0,.08,0,.08,0v-4.54s0,0-.08,0H132s0,0,0-.13,0-.12,0-.12h1.76a0,0,0,0,1,0,0v4.79s0,0,.07,0h.67s0,0,0,.12,0,.12,0,.12Zm1.76-7.48a.62.62,0,0,1-.48.22.61.61,0,0,1-.48-.22.69.69,0,0,1-.2-.52.66.66,0,0,1,.2-.5.63.63,0,0,1,.48-.21.64.64,0,0,1,.48.21.69.69,0,0,1,.19.5A.73.73,0,0,1,133.73,124.89Z"/><path d="M139,128.62a.54.54,0,0,1-.39.17.59.59,0,0,1-.41-.13.37.37,0,0,1-.15-.31c0-.14,0-.23.08-.28a.37.37,0,0,0,.07-.25.3.3,0,0,0-.09-.24.29.29,0,0,0-.22-.08.66.66,0,0,0-.55.26,2.6,2.6,0,0,0-.38.94v3.38s0,0,.08,0h.66s0,0,0,.12,0,.12,0,.12H135.2s0,0,0-.12,0-.12,0-.12h.66s.08,0,.08,0v-4.54s0,0-.08,0h-.66s0,0,0-.13,0-.12,0-.12H137s0,0,0,0v.79a1.34,1.34,0,0,1,.46-.73,1.39,1.39,0,0,1,.81-.2.85.85,0,0,1,.69.28,1,1,0,0,1,.23.65A.83.83,0,0,1,139,128.62Z"/><path d="M146.47,132.33a1,1,0,0,1-.56.15.87.87,0,0,1-.65-.28,1.27,1.27,0,0,1-.31-.65,1.41,1.41,0,0,1-.19.34,1.64,1.64,0,0,1-.29.3,1.47,1.47,0,0,1-.39.21,1.45,1.45,0,0,1-.47.08,2.88,2.88,0,0,1-.59-.07,1.62,1.62,0,0,1-.52-.21,1.07,1.07,0,0,1-.51-1,1.45,1.45,0,0,1,.18-.76,1.4,1.4,0,0,1,.42-.45,1.44,1.44,0,0,1,.51-.22l.45-.09.48-.05a2.6,2.6,0,0,0,.44-.06,1,1,0,0,0,.31-.09.18.18,0,0,0,.12-.16v-.91a1.66,1.66,0,0,0-.07-.56.85.85,0,0,0-.21-.32.6.6,0,0,0-.28-.13l-.32,0a.91.91,0,0,0-.42.07.32.32,0,0,0-.14.29.37.37,0,0,0,.06.23.45.45,0,0,1,0,.22.42.42,0,0,1-.12.3.55.55,0,0,1-.41.13.41.41,0,0,1-.38-.17.69.69,0,0,1-.1-.37.68.68,0,0,1,.09-.32,1.33,1.33,0,0,1,.28-.31,1.64,1.64,0,0,1,.46-.22,2,2,0,0,1,.63-.09,1.91,1.91,0,0,1,1.44.52,2.34,2.34,0,0,1,.5,1.65v2.39a.51.51,0,0,0,.08.32.21.21,0,0,0,.18.1.42.42,0,0,0,.26-.08.36.36,0,0,0,.12-.18s0,0,.08,0,.07.07.06.09A.71.71,0,0,1,146.47,132.33Zm-1.57-2.65a1.11,1.11,0,0,1-.53.16l-.59.08-.3.08a.69.69,0,0,0-.24.18.89.89,0,0,0-.17.38,2.87,2.87,0,0,0-.06.65,1.11,1.11,0,0,0,.2.73.73.73,0,0,0,.6.25.9.9,0,0,0,.46-.12,1.28,1.28,0,0,0,.35-.31,1.38,1.38,0,0,0,.21-.42,1.41,1.41,0,0,0,.07-.45Z"/><path d="M152.17,130.85a2.68,2.68,0,0,1-.54.85,2.84,2.84,0,0,1-.8.57,2.38,2.38,0,0,1-1,.21,2.33,2.33,0,0,1-1-.21,2.62,2.62,0,0,1-1.33-1.42,2.57,2.57,0,0,1-.2-1,2.6,2.6,0,0,1,.2-1,2.63,2.63,0,0,1,.54-.84,2.5,2.5,0,0,1,.79-.57,2.33,2.33,0,0,1,1-.21,2.38,2.38,0,0,1,1,.21,2.62,2.62,0,0,1,1.34,1.41,2.79,2.79,0,0,1,.2,1A2.75,2.75,0,0,1,152.17,130.85Zm-1-2.44a1.41,1.41,0,0,0-.44-.77.93.93,0,0,0-.38-.2,2.38,2.38,0,0,0-1,0,.91.91,0,0,0-.39.2,1.45,1.45,0,0,0-.42.77,5.34,5.34,0,0,0-.14,1.4c0,.34,0,.62,0,.86a3.61,3.61,0,0,0,.11.6,1.3,1.3,0,0,0,.42.7.75.75,0,0,0,.39.21,1.86,1.86,0,0,0,.48.06,1.88,1.88,0,0,0,.49-.06.76.76,0,0,0,.38-.21,1.16,1.16,0,0,0,.25-.29,1.19,1.19,0,0,0,.18-.41,2.81,2.81,0,0,0,.11-.6,7.09,7.09,0,0,0,0-.86A5.81,5.81,0,0,0,151.15,128.41Z"/><path d="M160.1,127.5a.16.16,0,0,0-.13.07,2,2,0,0,0-.17.43l-1.67,4.46s0,0-.12,0-.1,0-.11,0l-2.27-4.94s0,0-.09,0h-.66s0,0,0-.13,0-.12,0-.12h2.65s0,0,0,.12,0,.13,0,.13h-.71c-.06,0-.09,0-.07,0l1.61,3.72,1.22-3.24a3,3,0,0,0,.14-.43s0-.07-.06-.07H159s0,0,0-.13,0-.12,0-.12h1.79s0,0,0,.12,0,.13,0,.13Z"/><path d="M161,132.37s0,0,0-.12,0-.12,0-.12h.66c.06,0,.09,0,.09,0v-4.54s0,0-.09,0H161s0,0,0-.13,0-.12,0-.12h1.77s0,0,0,0v4.79s0,0,.07,0h.68s0,0,0,.12,0,.12,0,.12Zm1.76-7.48a.6.6,0,0,1-.47.22.61.61,0,0,1-.49-.22.73.73,0,0,1-.2-.52.7.7,0,0,1,.2-.5.64.64,0,0,1,.49-.21.62.62,0,0,1,.47.21.7.7,0,0,1,.2.5A.73.73,0,0,1,162.73,124.89Z"/><path d="M168.05,132.37s0,0,0,0v-.53a.93.93,0,0,1-.12.19,1.16,1.16,0,0,1-.26.22,1.77,1.77,0,0,1-.39.19,1.52,1.52,0,0,1-.51.08,2.06,2.06,0,0,1-1-.23,2.33,2.33,0,0,1-.74-.59,2.83,2.83,0,0,1-.66-1.81,2.61,2.61,0,0,1,.2-1,2.84,2.84,0,0,1,.54-.86,2.69,2.69,0,0,1,.8-.62,2.24,2.24,0,0,1,1-.23,1.62,1.62,0,0,1,.64.12,1.55,1.55,0,0,1,.48.37v-3.81s0,0-.08,0h-.66s0,0,0-.12,0-.12,0-.12h1.77a0,0,0,0,1,0,0v8.5s0,0,.1,0h.66s0,0,0,.12,0,.12,0,.12Zm0-4.31a.84.84,0,0,0-.44-.49,1.47,1.47,0,0,0-.68-.18,2.42,2.42,0,0,0-.47,0,.91.91,0,0,0-.39.2,1.39,1.39,0,0,0-.43.79,6.11,6.11,0,0,0-.14,1.42,5.69,5.69,0,0,0,.14,1.38,1.47,1.47,0,0,0,.43.77,1.12,1.12,0,0,0,.31.18,1,1,0,0,0,.39.06,1.71,1.71,0,0,0,.6-.1,1.09,1.09,0,0,0,.39-.25.94.94,0,0,0,.22-.35,1.15,1.15,0,0,0,.07-.35Z"/><path d="M175.16,129.54h-3.48s0,.08,0,.13v.14c0,.34,0,.62,0,.86a4,4,0,0,0,.08.6,1.77,1.77,0,0,0,.15.41,1,1,0,0,0,.24.29.82.82,0,0,0,.4.21,1.76,1.76,0,0,0,.46.06,2.16,2.16,0,0,0,1.13-.29,2.47,2.47,0,0,0,.79-.75.15.15,0,0,1,.08.05s.05.06,0,.07a2.56,2.56,0,0,1-.86.84,2.34,2.34,0,0,1-2.15.11,2.66,2.66,0,0,1-.79-.57,2.63,2.63,0,0,1-.52-.85,2.75,2.75,0,0,1-.19-1,2.78,2.78,0,0,1,.19-1,2.58,2.58,0,0,1,.52-.84,2.5,2.5,0,0,1,.79-.57,2.25,2.25,0,0,1,1-.21,1.83,1.83,0,0,1,1,.25,2.28,2.28,0,0,1,.66.61,2.94,2.94,0,0,1,.39.77,2.57,2.57,0,0,1,.12.72S175.18,129.54,175.16,129.54Zm-1.11-1.33a1.26,1.26,0,0,0-.31-.57.82.82,0,0,0-.33-.2,1.5,1.5,0,0,0-.37,0,2.31,2.31,0,0,0-.46,0,1.06,1.06,0,0,0-.62.44,2.52,2.52,0,0,0-.14.33,4,4,0,0,0-.1.46,5.6,5.6,0,0,0,0,.64h2.47A5.56,5.56,0,0,0,174.05,128.21Z"/><path d="M181,130.85a2.68,2.68,0,0,1-.54.85,2.71,2.71,0,0,1-.8.57,2.38,2.38,0,0,1-1,.21,2.25,2.25,0,0,1-1-.21,2.71,2.71,0,0,1-.8-.57,2.68,2.68,0,0,1-.54-.85,2.75,2.75,0,0,1-.2-1,2.79,2.79,0,0,1,.2-1,2.63,2.63,0,0,1,.54-.84,2.54,2.54,0,0,1,.8-.57,2.25,2.25,0,0,1,1-.21,2.38,2.38,0,0,1,1,.21,2.54,2.54,0,0,1,.8.57,2.63,2.63,0,0,1,.54.84,2.79,2.79,0,0,1,.2,1A2.75,2.75,0,0,1,181,130.85Zm-1-2.44a1.41,1.41,0,0,0-.44-.77.93.93,0,0,0-.38-.2,2.38,2.38,0,0,0-.49,0,2.44,2.44,0,0,0-.48,0,1,1,0,0,0-.39.2,1.45,1.45,0,0,0-.42.77,5.81,5.81,0,0,0-.14,1.4,7.09,7.09,0,0,0,0,.86,2.87,2.87,0,0,0,.1.6,1.3,1.3,0,0,0,.42.7.83.83,0,0,0,.39.21,1.86,1.86,0,0,0,.48.06,1.83,1.83,0,0,0,.49-.06.76.76,0,0,0,.38-.21,1.45,1.45,0,0,0,.26-.29,1.74,1.74,0,0,0,.18-.41,3.72,3.72,0,0,0,.1-.6,7.09,7.09,0,0,0,0-.86A5.81,5.81,0,0,0,180,128.41Z"/></g><g id="animar-3"><rect class="cls-29" x="229.54" y="114.87" width="104.88" height="27"/><path d="M267.16,132.37s0,0,0-.12,0-.12,0-.12h1c.06,0,.07,0,0,0l-.83-2.48h-2.69l-.68,2c-.07.22-.1.36-.12.42s0,.09,0,.09h.95s0,0,0,.12,0,.12,0,.12h-2.23s0,0,0-.12,0-.12,0-.12h.89c.05,0,.08,0,.11-.08a2.51,2.51,0,0,0,.15-.43l2.67-7.93s0,0,.1,0,.1,0,.11,0l2.94,8.4a.13.13,0,0,0,.1,0h1s0,0,0,.12,0,.12,0,.12Zm-1.11-6.84-1.27,3.84h2.53Z"/><path d="M274.26,132.37s0,0,0-.12,0-.12,0-.12h.66s.06,0,.06,0v-3.47a1.45,1.45,0,0,0-.09-.54,1,1,0,0,0-.22-.39.89.89,0,0,0-.3-.22.74.74,0,0,0-.32-.07,1.25,1.25,0,0,0-.86.28,2.1,2.1,0,0,0-.52.91v3.5s0,0,.09,0h.66s0,0,0,.12,0,.12,0,.12h-2.54s0,0,0-.12,0-.12,0-.12h.66c.07,0,.1,0,.1,0v-4.54s0,0-.1,0h-.66s0,0,0-.13,0-.12,0-.12h1.76s0,0,0,0v.79a1.37,1.37,0,0,1,.24-.43,1.5,1.5,0,0,1,.33-.29,2,2,0,0,1,.4-.16,1.48,1.48,0,0,1,.41,0,1.81,1.81,0,0,1,2,2v2.93s0,0,.08,0h.66s0,0,0,.12,0,.12,0,.12Z"/><path d="M277.46,132.37s0,0,0-.12,0-.12,0-.12h.66c.06,0,.08,0,.08,0v-4.54s0,0-.08,0h-.66s0,0,0-.13,0-.12,0-.12h1.76a0,0,0,0,1,0,0v4.79s0,0,.07,0H280s0,0,0,.12,0,.12,0,.12Zm1.76-7.48a.63.63,0,0,1-1,0,.73.73,0,0,1-.2-.52.7.7,0,0,1,.2-.5.65.65,0,0,1,1,0,.7.7,0,0,1,.2.5A.73.73,0,0,1,279.22,124.89Z"/><path d="M287.46,132.37v-.24h.66c.05,0,.08,0,.08,0v-3.47a1.45,1.45,0,0,0-.09-.54,1.21,1.21,0,0,0-.22-.39.89.89,0,0,0-.3-.22.76.76,0,0,0-.31-.07,1.39,1.39,0,0,0-.63.13,1.19,1.19,0,0,0-.42.34,1.22,1.22,0,0,0-.24.45,1.42,1.42,0,0,0-.08.48v3.29s0,0,.07,0h.66s0,0,0,.12,0,.12,0,.12h-2.51s0,0,0-.12,0-.12,0-.12h.66s.06,0,.06,0v-3.47a1.71,1.71,0,0,0-.08-.54,1.21,1.21,0,0,0-.22-.39,1.15,1.15,0,0,0-.3-.22.77.77,0,0,0-.32-.07,1.19,1.19,0,0,0-.85.28,2.1,2.1,0,0,0-.52.91v3.5s0,0,.07,0h.66s0,0,0,.12,0,.12,0,.12h-2.54s0,0,0-.12,0-.12,0-.12h.67c.06,0,.08,0,.08,0v-4.54s0,0-.08,0h-.67s0,0,0-.13,0-.12,0-.12h1.77a0,0,0,0,1,0,0v.79a1.25,1.25,0,0,1,.56-.72,1.62,1.62,0,0,1,.8-.21,2.7,2.7,0,0,1,1.29.26.63.63,0,1,0,1.24,0,1.79,1.79,0,0,1,.83-.21,3.49,3.49,0,0,1,.82.09,1.72,1.72,0,0,1,.62.31,1.37,1.37,0,0,1,.4.54,2.14,2.14,0,0,1,.14.81v3.18s0,0,.07,0H290s0,0,0,.12,0,.12,0,.12Z"/><path d="M295.13,132.33a1,1,0,0,1-.56.15.87.87,0,0,1-.65-.28,1.27,1.27,0,0,1-.31-.65,1.41,1.41,0,0,1-.19.34,1.64,1.64,0,0,1-.29.3,1.47,1.47,0,0,1-.39.21,1.45,1.45,0,0,1-.47.08,2.88,2.88,0,0,1-.59-.07,1.62,1.62,0,0,1-.52-.21,1.07,1.07,0,0,1-.51-1,1.45,1.45,0,0,1,.18-.76,1.3,1.3,0,0,1,.42-.45,1.44,1.44,0,0,1,.51-.22l.45-.09.48-.05a2.6,2.6,0,0,0,.44-.06,1,1,0,0,0,.31-.09.18.18,0,0,0,.12-.16v-.91a1.66,1.66,0,0,0-.07-.56.85.85,0,0,0-.21-.32.6.6,0,0,0-.28-.13l-.32,0a.91.91,0,0,0-.42.07.32.32,0,0,0-.14.29.37.37,0,0,0,.06.23.45.45,0,0,1,.05.22.42.42,0,0,1-.12.3.55.55,0,0,1-.41.13.41.41,0,0,1-.38-.17.69.69,0,0,1-.1-.37.68.68,0,0,1,.09-.32,1.33,1.33,0,0,1,.28-.31,1.64,1.64,0,0,1,.46-.22,2,2,0,0,1,.63-.09,1.91,1.91,0,0,1,1.44.52,2.34,2.34,0,0,1,.5,1.65v2.39a.51.51,0,0,0,.08.32.21.21,0,0,0,.18.1.42.42,0,0,0,.26-.08.36.36,0,0,0,.12-.18s0,0,.08,0,.07.07.06.09A.71.71,0,0,1,295.13,132.33Zm-1.57-2.65a1.11,1.11,0,0,1-.53.16l-.59.08-.3.08a.69.69,0,0,0-.24.18.89.89,0,0,0-.17.38,2.87,2.87,0,0,0-.06.65,1.11,1.11,0,0,0,.2.73.73.73,0,0,0,.6.25.9.9,0,0,0,.46-.12,1.28,1.28,0,0,0,.35-.31,1.38,1.38,0,0,0,.21-.42,1.41,1.41,0,0,0,.07-.45Z"/><path d="M299.65,128.62a.52.52,0,0,1-.39.17.59.59,0,0,1-.41-.13.37.37,0,0,1-.15-.31.39.39,0,0,1,.08-.28.37.37,0,0,0,.08-.25.3.3,0,0,0-.09-.24.31.31,0,0,0-.23-.08.68.68,0,0,0-.55.26,2.6,2.6,0,0,0-.38.94v3.38s0,0,.08,0h.66s0,0,0,.12,0,.12,0,.12h-2.54s0,0,0-.12,0-.12,0-.12h.66s.08,0,.08,0v-4.54s0,0-.08,0h-.66s0,0,0-.13,0-.12,0-.12h1.77s0,0,0,0v.79a1.15,1.15,0,0,1,1.27-.93.85.85,0,0,1,.69.28,1,1,0,0,1,.23.65A.83.83,0,0,1,299.65,128.62Z"/></g></g></g></svg>