<svg xmlns="http://www.w3.org/2000/svg" viewBox="0 0 332.77 296.64"><defs><style>.cls-1{font-size:14px;font-family:Didot-HTF-L11-Light, Didot;}.cls-1,.cls-25{fill:#2a350b;}.cls-2{letter-spacing:0.25em;}.cls-3{letter-spacing:0.25em;}.cls-4{letter-spacing:0em;}.cls-5{letter-spacing:-0.01em;}.cls-6{letter-spacing:-0.01em;}.cls-7{letter-spacing:0em;}.cls-8{letter-spacing:-0.01em;}.cls-9{letter-spacing:-0.03em;}.cls-10{letter-spacing:0.22em;}.cls-11{letter-spacing:0.22em;}.cls-12{letter-spacing:0em;}.cls-13{letter-spacing:0.06em;}.cls-14{letter-spacing:0.06em;}.cls-15{letter-spacing:-0.02em;}.cls-16{letter-spacing:0.1em;}.cls-17{letter-spacing:0.1em;}.cls-18{letter-spacing:-0.02em;}.cls-19{letter-spacing:-0.06em;}.cls-20{letter-spacing:0.57em;}.cls-21{letter-spacing:0em;}.cls-22{letter-spacing:-0.02em;}.cls-23{letter-spacing:-0.06em;}.cls-24{letter-spacing:-0.04em;}</style></defs><title>txt</title><g id="Layer_2" data-name="Layer 2"><g id="tipografias"><text class="cls-1" transform="translate(0.17 11.96)">A<tspan class="cls-2" x="9" y="0"> </tspan><tspan x="15.04" y="0">mãe</tspan><tspan class="cls-3" x="39.17" y="0"> </tspan><tspan x="45.21" y="0">das</tspan><tspan class="cls-2" x="63.89" y="0"> </tspan><tspan x="69.92" y="0">águas</tspan><tspan class="cls-3" x="101.84" y="0"> </tspan><tspan x="107.88" y="0">é</tspan><tspan class="cls-2" x="114.38" y="0"> </tspan><tspan x="120.41" y="0">mo</tspan><tspan class="cls-4" x="138.99" y="0">r</tspan><tspan x="144.21" y="0">ena</tspan><tspan class="cls-2" x="164.44" y="0"> </tspan><tspan x="170.48" y="0">de</tspan><tspan class="cls-3" x="184.2" y="0"> </tspan><tspan x="190.23" y="0">lindos</tspan><tspan class="cls-2" x="224.98" y="0"> </tspan><tspan class="cls-5" x="231.02" y="0">c</tspan><tspan x="237.09" y="0">abelos</tspan><tspan class="cls-3" x="273.07" y="0"> </tspan><tspan x="279.11" y="0">n</tspan><tspan class="cls-6" x="286.68" y="0">e</tspan><tspan x="293.08" y="0">g</tspan><tspan class="cls-7" x="299.96" y="0">r</tspan><tspan x="305.18" y="0">os</tspan><tspan class="cls-2" x="317.57" y="0"> </tspan><tspan x="323.6" y="0">e </tspan><tspan x="0" y="16.8">g</tspan><tspan class="cls-8" x="6.87" y="16.8">r</tspan><tspan x="12.01" y="16.8">andes olhos </tspan><tspan class="cls-5" x="80.37" y="16.8">c</tspan><tspan x="86.45" y="16.8">astanhos. </tspan><tspan class="cls-9" x="0" y="33.6">O</tspan><tspan x="9.66" y="33.6">s</tspan><tspan class="cls-10" x="14.95" y="33.6"> </tspan><tspan x="20.54" y="33.6">índios</tspan><tspan class="cls-10" x="55.6" y="33.6"> </tspan><tspan x="61.19" y="33.6">da</tspan><tspan class="cls-11" x="74.58" y="33.6"> </tspan><tspan class="cls-7" x="80.17" y="33.6">r</tspan><tspan class="cls-6" x="85.39" y="33.6">e</tspan><tspan x="91.79" y="33.6">gião</tspan><tspan class="cls-10" x="115.85" y="33.6"> </tspan><tspan x="121.45" y="33.6">amazôni</tspan><tspan class="cls-5" x="169.83" y="33.6">c</tspan><tspan x="175.9" y="33.6">a</tspan><tspan class="cls-10" x="182.06" y="33.6"> </tspan><tspan x="187.66" y="33.6">contam</tspan><tspan class="cls-10" x="230.45" y="33.6"> </tspan><tspan x="236.05" y="33.6">que</tspan><tspan class="cls-11" x="256.98" y="33.6"> </tspan><tspan x="262.57" y="33.6">IARA</tspan><tspan class="cls-10" x="294.96" y="33.6"> </tspan><tspan x="300.56" y="33.6">e</tspan><tspan class="cls-8" x="307.05" y="33.6">r</tspan><tspan x="312.19" y="33.6">a</tspan><tspan class="cls-10" x="318.35" y="33.6"> </tspan><tspan class="cls-12" x="323.94" y="33.6">a </tspan><tspan x="0" y="50.4">melhor</tspan><tspan class="cls-13" x="41.47" y="50.4"> </tspan><tspan x="44.87" y="50.4">índia</tspan><tspan class="cls-14" x="73.69" y="50.4"> </tspan><tspan x="77.1" y="50.4">guer</tspan><tspan class="cls-4" x="103.18" y="50.4">r</tspan><tspan x="108.4" y="50.4">ei</tspan><tspan class="cls-5" x="118.83" y="50.4">r</tspan><tspan x="123.97" y="50.4">a</tspan><tspan class="cls-13" x="130.13" y="50.4"> </tspan><tspan x="133.53" y="50.4">da</tspan><tspan class="cls-13" x="146.91" y="50.4"> </tspan><tspan x="150.32" y="50.4">trib</tspan><tspan class="cls-9" x="171.1" y="50.4">o</tspan><tspan x="177.85" y="50.4">.</tspan><tspan class="cls-13" x="180.54" y="50.4"> </tspan><tspan class="cls-15" x="183.94" y="50.4">O</tspan><tspan x="193.6" y="50.4">s</tspan><tspan class="cls-14" x="198.89" y="50.4"> </tspan><tspan x="202.3" y="50.4">irmãos</tspan><tspan class="cls-13" x="241.54" y="50.4"> </tspan><tspan x="244.94" y="50.4">tinham</tspan><tspan class="cls-13" x="285.85" y="50.4"> </tspan><tspan x="289.25" y="50.4">ciúmes </tspan><tspan x="0" y="67.2">DELA</tspan><tspan class="cls-16" x="35.38" y="67.2"> </tspan><tspan x="39.33" y="67.2">e</tspan><tspan class="cls-17" x="45.83" y="67.2"> </tspan><tspan x="49.78" y="67.2">combina</tspan><tspan class="cls-8" x="99.55" y="67.2">r</tspan><tspan x="104.69" y="67.2">am</tspan><tspan class="cls-16" x="122.33" y="67.2"> </tspan><tspan x="126.28" y="67.2">que</tspan><tspan class="cls-17" x="147.21" y="67.2"> </tspan><tspan x="151.17" y="67.2">queriam</tspan><tspan class="cls-16" x="198.95" y="67.2"> </tspan><tspan x="202.9" y="67.2">m</tspan><tspan class="cls-18" x="214.76" y="67.2">A</tspan><tspan x="223.42" y="67.2">TÁ-LA.</tspan><tspan class="cls-17" x="265.05" y="67.2"> </tspan><tspan class="cls-19" x="269" y="67.2">P</tspan><tspan x="276.83" y="67.2">orém,</tspan><tspan class="cls-16" x="309.87" y="67.2"> </tspan><tspan x="313.82" y="67.2">ela </tspan><tspan x="0" y="84">ouviu</tspan><tspan class="cls-20" x="32.26" y="84"> </tspan><tspan x="42.76" y="84">o</tspan><tspan class="cls-20" x="49.86" y="84"> </tspan><tspan x="60.37" y="84">plano</tspan><tspan class="cls-20" x="92.13" y="84"> </tspan><tspan x="102.64" y="84">e</tspan><tspan class="cls-20" x="109.13" y="84"> </tspan><tspan class="cls-4" x="119.64" y="84">r</tspan><tspan x="124.86" y="84">esolveu</tspan><tspan class="cls-20" x="167.66" y="84"> </tspan><tspan x="178.16" y="84">m</tspan><tspan class="cls-21" x="189.64" y="84">a</tspan><tspan x="195.73" y="84">tar</tspan><tspan class="cls-20" x="211.44" y="84"> </tspan><tspan x="221.95" y="84">os</tspan><tspan class="cls-20" x="234.34" y="84"> </tspan><tspan x="244.84" y="84">dois</tspan><tspan class="cls-20" x="268.39" y="84"> </tspan><tspan x="278.9" y="84">pa</tspan><tspan class="cls-5" x="292.36" y="84">r</tspan><tspan x="297.5" y="84">a</tspan><tspan class="cls-20" x="303.66" y="84"> </tspan><tspan x="314.17" y="84">sE </tspan><tspan x="0" y="100.8">DEFENDER. Após ter </tspan><tspan class="cls-22" x="127.13" y="100.8">f</tspan><tspan x="131.3" y="100.8">eito iSS</tspan><tspan class="cls-23" x="175.73" y="100.8">O</tspan><tspan x="184.94" y="100.8">, </tspan><tspan class="cls-24" x="190.13" y="100.8">I</tspan><tspan x="194.81" y="100.8">a</tspan><tspan class="cls-5" x="200.97" y="100.8">r</tspan><tspan x="206.11" y="100.8">a fugiu pa</tspan><tspan class="cls-8" x="260.86" y="100.8">r</tspan><tspan x="266" y="100.8">a as m</tspan><tspan class="cls-21" x="300.1" y="100.8">a</tspan><tspan x="306.19" y="100.8">tas</tspan></text></g><g id="flechas"><path id="arrow-2" class="cls-25" d="M179.8,117.69a20.15,20.15,0,0,1-6.5,1.17.49.49,0,0,0-.3-.13.84.84,0,0,0-.93.37.47.47,0,0,0,0,.5c.28.52.53,1.05.77,1.59-15.11,9.94-34.3,12-52,10.92-18.85-1.12-38.32-5.89-54.93-15-.57-.31-1.07.55-.5.86,16.62,9.16,35.88,13.82,54.72,15.13,17.95,1.26,37.69-.86,53.07-10.93.18.53.31,1.07.53,1.58a.9.9,0,0,0,.93.62.81.81,0,0,0,.21-.1.5.5,0,0,0,.4-.12c1.93-1.62,4-3.36,5.08-5.69A.5.5,0,0,0,179.8,117.69Z"/><path id="arrow-1" class="cls-25" d="M201.84,66.53a.44.44,0,0,0,.07-.28,2.87,2.87,0,0,0-.69-1.81.5.5,0,0,0-.6-.07c-.76.39-1.08,1.11-1.57,1.75-7.74-8.44-17.78-12.58-29-15.09a166.48,166.48,0,0,0-43.52-3.5c-29.86,1.29-59.11,9.55-86.81,20.4-.59.24-.33,1.2.27,1,26.83-10.52,54.94-18.44,83.82-20.23a169.37,169.37,0,0,1,43.29,2.75c6.66,1.32,13.27,3,19.36,6.09a40.8,40.8,0,0,1,11.87,9.24c-.73.34-1.71.41-2.39.7a.5.5,0,0,0,.12.91,18.9,18.9,0,0,1,5.5,2,.52.52,0,0,0,.76-.43A10.61,10.61,0,0,0,201.84,66.53Z"/></g></g></svg>